<?xml version="1.0" encoding="UTF-8"?>
<svg id="Ebene_2" data-name="Ebene 2" xmlns="http://www.w3.org/2000/svg" xmlns:xlink="http://www.w3.org/1999/xlink" viewBox="0 0 272.66 70.12">
  <defs>
    <style>
      .cls-1 {
        fill: url(#linear-gradient);
      }

      .cls-1, .cls-2, .cls-3, .cls-4 {
        stroke-width: 0px;
      }

      .cls-2 {
        fill: url(#AVT_logo_grad);
      }

      .cls-3 {
        fill: #fff;
      }

      .cls-4 {
        fill: #e42313;
      }
    </style>
    <linearGradient id="linear-gradient" x1="50.6" y1="25.82" x2="50.6" y2="0" gradientUnits="userSpaceOnUse">
      <stop offset=".17" stop-color="#c4210d"/>
      <stop offset=".4" stop-color="#c0200c"/>
      <stop offset=".59" stop-color="#b61f0a"/>
      <stop offset=".76" stop-color="#a51d07"/>
      <stop offset=".92" stop-color="#8e1a02"/>
      <stop offset="1" stop-color="#801900"/>
    </linearGradient>
    <linearGradient id="AVT_logo_grad" data-name="AVT logo grad" x1="34.97" y1="25.61" x2="34.97" y2="51.34" gradientUnits="userSpaceOnUse">
      <stop offset=".17" stop-color="#c4210d"/>
      <stop offset=".4" stop-color="#c0200c"/>
      <stop offset=".59" stop-color="#b61f0a"/>
      <stop offset=".76" stop-color="#a51d07"/>
      <stop offset=".92" stop-color="#8e1a02"/>
      <stop offset="1" stop-color="#801900"/>
    </linearGradient>
  </defs>
  <g id="Outlines_Col_Neg" data-name="Outlines Col Neg">
    <g>
      <g>
        <path class="cls-3" d="m213.54,47.67c.78.49,1.68.9,2.7,1.23,1.02.33,2.1.5,3.25.5,1.32,0,2.35-.25,3.09-.75.74-.5,1.1-1.23,1.1-2.19,0-.78-.28-1.39-.83-1.82-.55-.43-1.24-.78-2.06-1.05-.82-.27-1.72-.51-2.68-.73-.97-.22-1.86-.53-2.68-.94-.82-.4-1.51-.95-2.06-1.65-.55-.7-.83-1.65-.83-2.85,0-.86.17-1.62.52-2.3.34-.67.82-1.25,1.43-1.73.61-.48,1.34-.85,2.19-1.1.85-.26,1.76-.39,2.74-.39,1.08,0,2.17.13,3.29.39.51.12,1.02.23,1.5.43,1.17.48,1.27,1.51.99,2.07-.28.56-.49.94-.49.94-.78-.42-1.65-.75-2.59-.99-.94-.24-1.84-.37-2.7-.37-1.18,0-2.11.26-2.81.77-.7.51-1.05,1.24-1.05,2.17,0,.78.27,1.38.83,1.8s1.24.75,2.06,1.01c.82.26,1.71.49,2.67.7.95.21,1.84.51,2.66.92.82.41,1.51.96,2.06,1.67s.83,1.68.83,2.9c0,1.77-.64,3.13-1.91,4.1-1.27.97-3.02,1.45-5.26,1.45-1.42,0-2.74-.18-3.97-.53-.55-.16-1.07-.35-1.58-.55-.8-.33-1.47-1.34-.95-2.23.31-.53.54-.88.54-.88Z"/>
        <path class="cls-3" d="m110.54,51.42s-8.52-22.6-8.99-23.85c-.55-1.45-.7-1.88-1.99-1.88h-1.07c-1.37,0-1.56.33-2.14,1.92-.5,1.37-9,23.82-9,23.82h1.45c1.23,0,2.15-.46,2.87-2.4.16-.44,1.38-3.93,1.38-3.93l.89-2.46h10.02l.89,2.46s1.22,3.49,1.38,3.93c.71,1.94,1.64,2.4,2.87,2.4h1.45s0-.01,0-.02h0Zm-11.65-22.55h.07l3.96,11.09h-7.97l3.93-11.09Z"/>
        <path class="cls-3" d="m150.31,37.03c-.32-1.04-.8-1.95-1.43-2.72-.64-.77-1.45-1.37-2.43-1.8-.98-.43-2.14-.64-3.49-.64s-2.51.23-3.62.7c-1.12.47-2.08,1.12-2.89,1.97-.81.85-1.45,1.88-1.91,3.09-.47,1.21-.7,2.57-.7,4.06,0,3.19.8,5.69,2.41,7.5,1.6,1.81,3.86,2.72,6.78,2.72,1.32,0,2.59-.2,3.81-.61.61-.2.74-.28,1.3-.55.65-.32,1.63-1.31.99-2.62l-.36-.56c-.78.52-1.65.95-2.61,1.29-.96.34-1.95.52-2.98.52-2.08,0-3.64-.64-4.67-1.91-.94-1.15-1.46-2.76-1.59-4.81h12.49c.94,0,1.15-.34,1.23-.63.04-.16.09-.45.11-.77.02-.32.04-.6.04-.85,0-1.2-.16-2.32-.48-3.36Zm-11.23-1.29c1.09-1.02,2.41-1.53,3.95-1.53.88,0,1.63.15,2.24.46.61.31,1.12.72,1.51,1.23.39.51.67,1.12.83,1.82.16.7.24,1.44.24,2.22h-10.84c.29-1.79.99-3.19,2.08-4.21Z"/>
        <path class="cls-3" d="m235.71,41.65c0-1.47.23-2.81.7-4.01.46-1.2,1.11-2.22,1.93-3.07.82-.85,1.79-1.5,2.9-1.97,1.12-.46,2.33-.7,3.66-.7s2.54.23,3.66.7c1.11.47,2.08,1.12,2.88,1.97.81.85,1.44,1.87,1.89,3.07.45,1.2.68,2.54.68,4.01,0,1.57-.22,2.98-.66,4.24-.44,1.26-1.06,2.33-1.85,3.22-.8.88-1.76,1.56-2.89,2.04-1.13.48-2.36.72-3.71.72s-2.62-.24-3.75-.72c-1.13-.48-2.1-1.16-2.9-2.04-.81-.88-1.43-1.95-1.88-3.22-.44-1.26-.66-2.68-.66-4.24Zm3.09,0c0,1.17.14,2.24.42,3.2.28.96.69,1.78,1.21,2.46.53.69,1.16,1.21,1.91,1.58.75.37,1.6.55,2.56.55.91,0,1.73-.18,2.48-.55.75-.37,1.38-.89,1.91-1.58.53-.69.93-1.51,1.21-2.46.28-.96.42-2.02.42-3.2,0-1.1-.15-2.1-.44-3-.29-.89-.71-1.66-1.25-2.3-.54-.64-1.18-1.13-1.91-1.47-.73-.34-1.54-.51-2.43-.51s-1.7.17-2.44.51c-.75.34-1.39.83-1.93,1.47-.54.64-.96,1.4-1.27,2.3-.31.89-.46,1.89-.46,3Z"/>
        <path class="cls-3" d="m127.64,28.18c0,.84.68,1.53,1.52,1.53h0c.84,0,1.53-.68,1.53-1.53v-1.06c0-.84-.68-1.53-1.53-1.53h0c-.84,0-1.52.68-1.52,1.53v1.06Z"/>
        <path class="cls-3" d="m206.43,28.18c0,.84.68,1.53,1.52,1.53h0c.84,0,1.53-.68,1.53-1.53v-1.06c0-.84-.68-1.53-1.53-1.53h0c-.84,0-1.52.68-1.52,1.53v1.06Z"/>
        <path class="cls-3" d="m229.51,28.18c0,.84.68,1.53,1.53,1.53h0c.84,0,1.52-.68,1.52-1.53v-1.06c0-.84-.68-1.53-1.52-1.53h0c-.84,0-1.53.68-1.53,1.53v1.06Z"/>
        <path class="cls-3" d="m204.04,25.69h-1.84c-.97,0-1.76.45-2.48,2.39-.14.38-7.09,19.8-7.09,19.8h-.07s-6.9-19.42-7.04-19.8c-.71-1.94-1.51-2.39-2.48-2.39h-1.86s8.84,23.68,9.04,24.27c.35,1.05.96,1.46,1.42,1.46h1.52c.74,0,1.22-.17,1.68-1.32.46-1.15,9.23-24.41,9.23-24.41h-.02Z"/>
        <path class="cls-3" d="m116.04,23.67h-.48c-1.56,0-2.57.46-2.57,3.23v24.52h1.52c.84,0,1.52-.68,1.52-1.52v-26.23Z"/>
        <path class="cls-3" d="m123.35,23.67h-.48c-1.56,0-2.57.42-2.57,3.01v24.74h1.52c.84,0,1.52-.68,1.52-1.52v-26.23Z"/>
        <path class="cls-3" d="m130.22,32.46c-1.53,0-2.53.41-2.57,2.85h0v16.12h1.53c.84,0,1.52-.68,1.52-1.52v-17.44h-.48Z"/>
        <path class="cls-3" d="m209,32.46c-1.52,0-2.53.41-2.57,2.85h0v16.12h1.53c.84,0,1.52-.68,1.52-1.52v-17.44h-.48Z"/>
        <path class="cls-3" d="m232.08,32.46c-1.53,0-2.53.41-2.57,2.85h0v16.12h1.53c.84,0,1.52-.68,1.52-1.52v-17.44h-.48Z"/>
        <path class="cls-3" d="m272.66,38.04c-.03-.8-.15-1.56-.33-2.26-.22-.82-.58-1.52-1.06-2.09-.49-.58-1.12-1.02-1.87-1.34-.76-.32-1.68-.48-2.76-.48-1.35,0-2.57.29-3.68.88-1.1.59-2.06,1.31-2.87,2.17l-.04-.04c-.2-1.82-.89-2.54-2.18-2.54h-.8v19.07h1.53c.84,0,1.52-.68,1.52-1.52v-12.52c.78-.96,1.66-1.7,2.63-2.24.97-.54,2.04-.81,3.22-.81,1.32,0,2.26.37,2.81,1.12.55.75.83,1.74.83,2.99,0,.27,0,12.98,0,12.98h1.52c.84,0,1.52-.68,1.52-1.52v-11.86Z"/>
        <path class="cls-3" d="m169.37,23.67c-1.56,0-2.57.46-2.57,3.23v7.91c-.78-.83-1.68-1.53-2.68-2.08-1.01-.55-2.13-.83-3.38-.83-1.18,0-2.24.21-3.18.64-.94.43-1.76,1.06-2.45,1.89-.69.83-1.21,1.84-1.58,3.03-.37,1.19-.55,2.56-.55,4.1,0,3.28.69,5.82,2.06,7.61,1.37,1.79,3.26,2.68,5.66,2.68,1.32,0,2.49-.28,3.49-.83.96-.53,1.83-1.21,2.61-2.04,0,1.49.83,2.43,1.78,2.43h1.27v-27.75h-.48Zm-2.57,22.94c-.78.9-1.62,1.6-2.5,2.08-.88.48-1.85.72-2.9.72-1.76,0-3.1-.69-4.01-2.08-.91-1.38-1.36-3.29-1.36-5.71s.47-4.09,1.42-5.35c.94-1.26,2.26-1.89,3.95-1.89,1.08,0,2.05.26,2.92.77.87.51,1.7,1.2,2.48,2.06v9.41Z"/>
      </g>
      <path class="cls-4" d="m16.86,14.54C20.66,5.25,27.19,0,35.48,0h12.29c-1.36,0-3.28.11-6.59,7.51-1.27,2.83-14.52,31.73-16.76,36.48-1.94,4.09-5.19,7.36-10.2,7.36H0L16.86,14.54Z"/>
      <path class="cls-4" d="m67.9,37.48c-2.95,7.02-10.05,13.86-16.71,13.86h-13.3c3.45,0,6.74-8.45,6.74-8.45,0,0,14.97-33.02,16.37-36.04,1.9-4.11,5.78-6.86,9.76-6.86h14.52l-17.38,37.48Z"/>
      <path class="cls-1" d="m52.38,25.82c1.96-4.32,3.96-8.72,5.55-12.22-1.3-2.84-2.39-5.26-2.76-6.1C53.41,3.55,51.85,0,47.64,0c-1.02,0-2.37.2-4.37,3.44.02,2.66.96,4.53,2.2,7.09,1.15,2.38,4.22,9.24,6.91,15.29Z"/>
      <path class="cls-2" d="m42.61,47.02c.2-1.66-.26-3.1-.78-4.13-1.81-3.58-6.1-11.83-8.94-17.28-2,4.35-4.01,8.73-5.61,12.19,2,3.96,3.76,7.4,4.46,8.73,1.71,3.24,4.22,4.79,6.18,4.82,1.74-.03,3.43-2.19,4.68-4.33Z"/>
    </g>
    <g>
      <path class="cls-3" d="m139,70.12c-.49,0-.94-.1-1.34-.29-.41-.19-.73-.47-.97-.83-.24-.37-.36-.81-.36-1.33,0-.4.08-.74.23-1.01.15-.28.37-.5.65-.68.28-.18.61-.32.99-.42.38-.1.8-.18,1.26-.24.45-.06.84-.11,1.15-.15.31-.04.56-.11.72-.2.17-.09.25-.24.25-.44v-.19c0-.55-.17-.99-.49-1.31-.33-.32-.8-.48-1.42-.48s-1.06.13-1.43.39-.63.56-.77.91l-.89-.32c.18-.44.44-.8.76-1.07.32-.27.69-.46,1.09-.58.4-.12.81-.18,1.22-.18.31,0,.63.04.97.12s.65.22.94.42c.29.2.52.48.7.83.18.35.27.8.27,1.34v5.51h-.94v-1.28h-.06c-.11.24-.28.47-.5.7-.22.22-.5.41-.84.55-.33.14-.73.22-1.18.22Zm.13-.86c.5,0,.93-.11,1.3-.33.37-.22.65-.52.85-.89.2-.37.3-.77.3-1.22v-1.17c-.07.07-.19.13-.35.18-.16.05-.35.1-.57.14-.21.04-.43.07-.64.1s-.4.05-.57.07c-.46.06-.85.14-1.17.26-.32.12-.57.28-.75.49-.17.21-.26.48-.26.81,0,.49.18.88.53,1.14.35.27.79.4,1.33.4Z"/>
      <path class="cls-3" d="m148.24,61v-1.89h8.89v1.89h-3.31v8.94h-2.26v-8.94h-3.31Z"/>
      <path class="cls-3" d="m158.6,69.94v-10.82h2.29v4.77h.14l3.9-4.77h2.74l-4.02,4.85,4.06,5.98h-2.74l-2.96-4.45-1.13,1.37v3.08h-2.29Z"/>
      <path class="cls-3" d="m168.86,69.94v-10.82h2.29v4.47h4.65v-4.47h2.28v10.82h-2.28v-4.47h-4.65v4.47h-2.29Z"/>
      <path class="cls-3" d="m185.37,59.12l2.62,8.22h.1l2.62-8.22h2.54l-3.73,10.82h-2.95l-3.74-10.82h2.54Z"/>
      <path class="cls-3" d="m195.63,60.77c-.33,0-.62-.11-.86-.33s-.36-.49-.36-.81.12-.58.36-.8c.24-.22.52-.33.86-.33s.62.11.86.33c.24.22.36.49.36.8s-.12.58-.36.81-.52.33-.86.33Zm-1.13,9.16v-8.12h2.25v8.12h-2.25Z"/>
      <path class="cls-3" d="m205.31,64.14l-2.06.13c-.04-.18-.11-.34-.23-.48s-.27-.26-.46-.34c-.19-.09-.41-.13-.67-.13-.35,0-.64.07-.88.22-.24.15-.36.34-.36.58,0,.19.08.36.23.49.16.13.42.24.8.32l1.47.3c.79.16,1.38.42,1.77.78.39.36.58.83.58,1.42,0,.53-.16,1-.47,1.4-.31.4-.74.71-1.28.94s-1.16.34-1.87.34c-1.07,0-1.93-.22-2.57-.67-.64-.45-1.01-1.06-1.12-1.84l2.21-.12c.07.33.23.58.49.75.26.17.59.26.99.26s.71-.08.95-.23c.24-.15.36-.35.37-.59,0-.2-.09-.37-.26-.5-.17-.13-.43-.23-.78-.3l-1.41-.28c-.79-.16-1.38-.43-1.77-.82-.39-.39-.58-.89-.58-1.5,0-.52.14-.97.43-1.35s.68-.67,1.2-.87c.52-.2,1.12-.31,1.82-.31,1.03,0,1.83.22,2.42.65.59.43.93,1.02,1.03,1.77Z"/>
      <path class="cls-3" d="m208.04,60.77c-.33,0-.62-.11-.86-.33s-.36-.49-.36-.81.12-.58.36-.8c.24-.22.52-.33.86-.33s.62.11.86.33c.24.22.36.49.36.8s-.12.58-.36.81-.52.33-.86.33Zm-1.13,9.16v-8.12h2.25v8.12h-2.25Z"/>
      <path class="cls-3" d="m214.63,70.1c-.82,0-1.53-.18-2.13-.53s-1.06-.84-1.38-1.47c-.32-.63-.49-1.36-.49-2.19s.16-1.57.49-2.2c.32-.63.78-1.12,1.38-1.47s1.31-.53,2.13-.53,1.53.17,2.13.53,1.06.84,1.38,1.47.49,1.36.49,2.2-.16,1.56-.49,2.19-.78,1.12-1.38,1.47-1.31.53-2.13.53Zm.01-1.74c.37,0,.69-.11.94-.32.25-.21.44-.5.57-.87.13-.37.19-.79.19-1.26s-.06-.89-.19-1.26c-.13-.37-.32-.66-.57-.88-.25-.22-.56-.32-.94-.32s-.69.11-.95.32c-.26.21-.45.51-.58.88-.13.37-.19.79-.19,1.26s.06.89.19,1.26c.13.37.32.66.58.87.26.21.57.32.95.32Z"/>
      <path class="cls-3" d="m222.34,65.25v4.69h-2.25v-8.12h2.15v1.43h.1c.18-.47.48-.85.9-1.12.42-.28.94-.41,1.54-.41.56,0,1.06.12,1.47.37.42.25.75.6.98,1.05.23.46.35,1,.35,1.63v5.17h-2.25v-4.77c0-.5-.12-.89-.38-1.17-.26-.28-.61-.42-1.06-.42-.3,0-.57.07-.8.2-.23.13-.41.32-.54.57-.13.25-.19.55-.2.9Z"/>
      <path class="cls-3" d="m233.83,69.94v-10.82h.95v4.25h.08c.11-.24.26-.49.46-.75.2-.26.46-.47.79-.65.33-.17.74-.26,1.23-.26.67,0,1.25.18,1.75.53s.9.84,1.18,1.47c.28.63.42,1.36.42,2.2s-.14,1.57-.42,2.2c-.28.63-.67,1.12-1.17,1.47-.5.35-1.08.53-1.75.53-.49,0-.9-.09-1.23-.26-.33-.18-.59-.39-.8-.65-.2-.26-.36-.51-.46-.76h-.12v1.51h-.91Zm.93-4.05c0,.66.1,1.24.29,1.74.2.5.48.9.85,1.19s.81.43,1.34.43,1-.15,1.37-.45c.37-.3.66-.7.85-1.21.19-.51.29-1.08.29-1.71s-.1-1.19-.29-1.69c-.19-.5-.47-.9-.85-1.19s-.83-.44-1.37-.44-.98.14-1.34.43c-.37.28-.65.67-.84,1.17-.19.5-.29,1.07-.29,1.72Z"/>
      <path class="cls-3" d="m242.76,69.94v-8.12h.91v1.25h.07c.16-.41.44-.74.85-.99s.86-.38,1.37-.38c.08,0,.16,0,.26,0,.1,0,.17,0,.24.01v.96s-.12-.02-.22-.03c-.11-.01-.22-.02-.34-.02-.42,0-.8.09-1.13.27s-.59.42-.78.74c-.19.31-.29.67-.29,1.07v5.24h-.94Z"/>
      <path class="cls-3" d="m250.33,70.12c-.49,0-.94-.1-1.34-.29-.41-.19-.73-.47-.97-.83-.24-.37-.36-.81-.36-1.33,0-.4.08-.74.23-1.01.15-.28.37-.5.65-.68.28-.18.61-.32.99-.42.38-.1.8-.18,1.26-.24.45-.06.84-.11,1.15-.15.31-.04.56-.11.72-.2.17-.09.25-.24.25-.44v-.19c0-.55-.17-.99-.49-1.31-.33-.32-.8-.48-1.42-.48s-1.06.13-1.43.39-.63.56-.77.91l-.89-.32c.18-.44.44-.8.76-1.07.32-.27.69-.46,1.09-.58.4-.12.81-.18,1.22-.18.31,0,.63.04.97.12s.65.22.94.42c.29.2.52.48.7.83.18.35.27.8.27,1.34v5.51h-.94v-1.28h-.06c-.11.24-.28.47-.5.7-.22.22-.5.41-.84.55-.33.14-.73.22-1.18.22Zm.13-.86c.5,0,.93-.11,1.3-.33.37-.22.65-.52.85-.89.2-.37.3-.77.3-1.22v-1.17c-.07.07-.19.13-.35.18-.16.05-.35.1-.57.14-.21.04-.43.07-.64.1s-.4.05-.57.07c-.46.06-.85.14-1.17.26-.32.12-.57.28-.75.49-.17.21-.26.48-.26.81,0,.49.18.88.53,1.14.35.27.79.4,1.33.4Z"/>
      <path class="cls-3" d="m257.29,64.87v5.07h-.94v-8.12h.91v1.27h.08c.19-.42.49-.75.89-1s.9-.38,1.5-.38c.55,0,1.03.11,1.44.34.41.23.74.56.97,1,.23.44.35.98.35,1.62v5.26h-.94v-5.2c0-.67-.19-1.19-.56-1.58s-.87-.58-1.49-.58c-.43,0-.81.09-1.14.27-.33.18-.59.45-.78.79s-.29.75-.29,1.22Z"/>
      <path class="cls-3" d="m267.89,70.11c-.67,0-1.25-.18-1.75-.53-.5-.35-.89-.84-1.17-1.47-.28-.63-.42-1.37-.42-2.2s.14-1.57.42-2.2.67-1.12,1.18-1.47,1.09-.53,1.76-.53c.49,0,.9.09,1.23.26s.59.39.79.65.35.51.46.75h.08v-4.25h.95v10.82h-.92v-1.51h-.11c-.11.25-.26.5-.47.76-.2.26-.47.48-.8.65-.33.18-.74.26-1.23.26Zm.11-.86c.52,0,.97-.14,1.34-.43.37-.29.65-.68.85-1.19.2-.51.29-1.09.29-1.74s-.1-1.22-.29-1.72c-.19-.5-.48-.89-.85-1.17-.37-.28-.82-.43-1.35-.43s-1,.15-1.37.44c-.37.29-.65.69-.85,1.19-.19.5-.29,1.06-.29,1.69s.1,1.2.29,1.71c.19.51.48.91.85,1.21.37.3.83.45,1.37.45Z"/>
    </g>
  </g>
</svg>